<svg xmlns="http://www.w3.org/2000/svg" width="1600" height="1600" viewBox="0 0 1600 1600"><path d="M1280.439 755.607c-86.86 238.645-350.734 361.691-589.38 274.831-238.644-86.86-361.691-350.733-274.831-589.378 86.86-238.645 350.734-361.692 589.38-274.831 238.644 86.859 361.69 350.732 274.83 589.378z" fill="none" stroke="#054f79" stroke-width=".488" stroke-miterlimit="10"/><path d="M1224.658 735.305c-75.647 207.838-305.458 315-513.296 239.353-207.839-75.647-315-305.458-239.353-513.296 75.646-207.838 305.457-315.001 513.296-239.353 207.838 75.647 315 305.458 239.353 513.296z" fill="none" stroke="#054f79" stroke-width="1.652" stroke-miterlimit="10"/><path d="M1168.878 715.002c-64.435 177.032-260.182 268.31-437.214 203.876-177.031-64.434-268.31-260.182-203.876-437.213 64.435-177.032 260.182-268.31 437.214-203.877 177.033 64.435 268.31 260.183 203.876 437.214z" fill="none" stroke="#054f79" stroke-width="2.818" stroke-miterlimit="10"/><path d="M1113.098 694.7c-53.222 146.225-214.905 221.62-361.132 168.397-146.225-53.22-221.62-214.905-168.397-361.13C636.79 355.742 798.474 280.347 944.7 333.569c146.226 53.221 221.62 214.905 168.398 361.13z" fill="none" stroke="#054f79" stroke-width="3.982" stroke-miterlimit="10"/><path d="M1057.318 674.398c-42.01 115.419-169.63 174.93-285.049 132.92-115.419-42.01-174.93-169.63-132.92-285.049 42.008-115.419 169.63-174.93 285.048-132.92 115.42 42.01 174.93 169.63 132.92 285.049z" fill="none" stroke="#054f79" stroke-width="5.148" stroke-miterlimit="10"/><path d="M1001.537 654.095c-30.796 84.613-124.353 128.238-208.966 97.443-84.611-30.797-128.238-124.354-97.441-208.966 30.795-84.613 124.353-128.239 208.965-97.443 84.612 30.797 128.239 124.353 97.442 208.966z" fill="none" stroke="#054f79" stroke-width="6.313" stroke-miterlimit="10"/><path d="M945.757 633.793c-19.584 53.805-79.077 81.548-132.883 61.964-53.806-19.583-81.548-79.078-61.965-132.883 19.584-53.805 79.078-81.548 132.884-61.964 53.805 19.583 81.548 79.077 61.964 132.883z" fill="none" stroke="#054f79" stroke-width="7.477" stroke-miterlimit="10"/><g fill="none" stroke="#054f79" stroke-miterlimit="10"><path d="M1112.322 1187.377c-101.645 279.266-410.433 423.256-689.7 321.611C143.357 1407.345-.634 1098.556 101.012 819.29c101.644-279.265 410.433-423.257 689.7-321.612 279.264 101.644 423.255 410.433 321.61 689.699z" stroke-width=".571"/><path d="M1047.048 1163.619c-88.524 243.215-357.452 368.619-600.667 280.095-243.216-88.524-368.618-357.451-280.095-600.666 88.523-243.215 357.45-368.619 600.667-280.095 243.215 88.524 368.618 357.451 280.095 600.666z" stroke-width="1.934"/><path d="M981.773 1139.86c-75.403 207.166-304.47 313.98-511.634 238.58-207.165-75.403-313.98-304.47-238.579-511.634 75.403-207.165 304.469-313.98 511.634-238.579 207.166 75.403 313.981 304.469 238.579 511.634z" stroke-width="3.297"/><path d="M916.498 1116.103c-62.281 171.115-251.485 259.342-422.601 197.061-171.115-62.28-259.343-251.485-197.061-422.6 62.28-171.115 251.484-259.342 422.6-197.061 171.116 62.28 259.343 251.485 197.062 422.6z" stroke-width="4.66"/><path d="M851.223 1092.345c-49.16 135.065-198.502 204.705-333.567 155.545-135.066-49.16-204.706-198.503-155.546-333.568s198.503-204.705 333.568-155.545c135.065 49.16 204.705 198.503 155.545 333.568z" stroke-width="6.024"/><path d="M785.948 1068.587c-36.039 99.015-145.52 150.066-244.535 114.028-99.014-36.038-150.066-145.52-114.027-244.535 36.037-99.015 145.52-150.066 244.533-114.028 99.015 36.038 150.068 145.52 114.03 244.535z" stroke-width="7.388"/><path d="M720.673 1044.829c-22.917 62.963-92.537 95.428-155.5 72.51-62.966-22.915-95.43-92.537-72.513-155.5 22.917-62.964 92.537-95.43 155.502-72.512 62.964 22.917 95.429 92.538 72.511 155.502z" stroke-width="8.75"/></g></svg>